<?xml version="1.0" encoding="UTF-8" standalone="no"?>
<!-- Created with Inkscape (http://www.inkscape.org/) -->

<svg
   xmlns:dc="http://purl.org/dc/elements/1.1/"
   xmlns:cc="http://creativecommons.org/ns#"
   xmlns:rdf="http://www.w3.org/1999/02/22-rdf-syntax-ns#"
   xmlns:svg="http://www.w3.org/2000/svg"
   xmlns="http://www.w3.org/2000/svg"
   xmlns:sodipodi="http://sodipodi.sourceforge.net/DTD/sodipodi-0.dtd"
   xmlns:inkscape="http://www.inkscape.org/namespaces/inkscape"
   width="259.68982"
   height="294.13644"
   id="svg9089"
   sodipodi:version="0.32"
   inkscape:version="0.48.1 "
   version="1.0"
   sodipodi:docname="cartoon_tv_coloring_book_colouring_black_white_line_art.svg"
   inkscape:output_extension="org.inkscape.output.svg.inkscape">
  <defs
     id="defs3">
    <inkscape:perspective
       sodipodi:type="inkscape:persp3d"
       inkscape:vp_x="0 : 526.18109 : 1"
       inkscape:vp_y="0 : 1000 : 0"
       inkscape:vp_z="744.09448 : 526.18109 : 1"
       inkscape:persp3d-origin="372.04724 : 350.78739 : 1"
       id="perspective9095" />
  </defs>
  <sodipodi:namedview
     inkscape:document-units="mm"
     id="base"
     pagecolor="#ffffff"
     bordercolor="#666666"
     borderopacity="1.0"
     inkscape:pageopacity="0.0"
     inkscape:pageshadow="2"
     inkscape:zoom="0.35"
     inkscape:cx="350"
     inkscape:cy="520"
     inkscape:current-layer="layer1"
     showgrid="false"
     inkscape:window-width="640"
     inkscape:window-height="662"
     inkscape:window-x="947"
     inkscape:window-y="48"
     inkscape:window-maximized="0" />
  <metadata
     id="metadata4">
    <rdf:RDF>
      <cc:Work
         rdf:about="">
        <dc:format>image/svg+xml</dc:format>
        <dc:type
           rdf:resource="http://purl.org/dc/dcmitype/StillImage" />
      </cc:Work>
    </rdf:RDF>
  </metadata>
  <g
     inkscape:label="Layer 1"
     inkscape:groupmode="layer"
     id="layer1"
     transform="translate(-220.15509,-385.29396)">
    <g
       id="g2998"
       style="stroke:#000000;fill:#ffffff">
      <path
         style="opacity:1;fill:#ffffff;fill-opacity:1;fill-rule:nonzero;stroke:#000000;stroke-width:3;stroke-linecap:butt;stroke-linejoin:miter;marker:none;marker-start:none;marker-mid:none;marker-end:none;stroke-miterlimit:4;stroke-dasharray:none;stroke-dashoffset:0;stroke-opacity:1;visibility:visible;display:inline;overflow:visible;enable-background:accumulate"
         d="M 443.74826,656.79395 C 448.74826,662.79395 455.23802,662.6314 453.24826,676.29395 C 432.09022,684.59446 388.24826,673.79395 388.24826,673.79395 L 388.74826,668.79395 L 443.74826,656.79395 z"
         id="path9087"
         sodipodi:nodetypes="ccccc" />
      <path
         sodipodi:nodetypes="ccccc"
         id="path9085"
         d="M 250.11648,646.29395 C 245.11648,652.29395 238.62672,652.1314 240.61648,665.79395 C 261.77452,674.09446 305.61648,663.29395 305.61648,663.29395 L 305.11648,658.29395 L 250.11648,646.29395 z"
         style="opacity:1;fill:#ffffff;fill-opacity:1;fill-rule:nonzero;stroke:#000000;stroke-width:3;stroke-linecap:butt;stroke-linejoin:miter;marker:none;marker-start:none;marker-mid:none;marker-end:none;stroke-miterlimit:4;stroke-dasharray:none;stroke-dashoffset:0;stroke-opacity:1;visibility:visible;display:inline;overflow:visible;enable-background:accumulate" />
      <path
         transform="translate(-30.883524,130.93177)"
         d="m 432,350.36218 c 0,17.12083 -22.83348,31 -51,31 -28.16652,0 -51,-13.87917 -51,-31 0,-17.12082 22.83348,-31 51,-31 28.16652,0 51,13.87918 51,31 z"
         sodipodi:ry="31"
         sodipodi:rx="51"
         sodipodi:cy="350.36218"
         sodipodi:cx="381"
         id="path9062"
         style="opacity:1;fill:#ffffff;fill-opacity:1;fill-rule:nonzero;stroke:#000000;stroke-width:3;stroke-linecap:butt;stroke-linejoin:miter;marker:none;marker-start:none;marker-mid:none;marker-end:none;stroke-miterlimit:4;stroke-dasharray:none;stroke-dashoffset:0;stroke-opacity:1;visibility:visible;display:inline;overflow:visible;enable-background:accumulate"
         sodipodi:type="arc" />
      <path
         sodipodi:nodetypes="ccccc"
         id="path9046"
         d="M 246.68791,494.72252 C 276.68791,476.86538 438.83076,434.00824 467.40219,509.72253 C 497.40219,600.43681 464.86346,640.10614 455.97362,651.1511 C 430.25933,679.00824 303.11648,676.86538 234.54505,644.00824 C 203.11648,587.57967 230.62373,504.28453 246.68791,494.72252 z"
         style="opacity:1;fill:#ffffff;fill-opacity:1;fill-rule:nonzero;stroke:#000000;stroke-width:3;stroke-linecap:butt;stroke-linejoin:miter;marker:none;marker-start:none;marker-mid:none;marker-end:none;stroke-miterlimit:4;stroke-dasharray:none;stroke-dashoffset:0;stroke-opacity:1;visibility:visible;display:inline;overflow:visible;enable-background:accumulate" />
      <path
         style="opacity:1;fill:#ffffff;fill-opacity:1;fill-rule:nonzero;stroke:#000000;stroke-width:3;stroke-linecap:butt;stroke-linejoin:miter;marker:none;marker-start:none;marker-mid:none;marker-end:none;stroke-miterlimit:4;stroke-dasharray:none;stroke-dashoffset:0;stroke-opacity:1;visibility:visible;display:inline;overflow:visible;enable-background:accumulate"
         d="M 254.95077,511.33577 C 276.52564,497.41628 393.13267,464.00949 413.68017,523.02816 C 435.25503,593.7392 411.85441,624.66112 405.46116,633.27058 C 386.96841,654.98499 295.53207,653.31465 246.21808,627.70277 C 223.61584,583.71717 243.39801,518.78928 254.95077,511.33577 z"
         id="path9048"
         sodipodi:nodetypes="ccccc" />
      <path
         sodipodi:nodetypes="ccsc"
         id="path9057"
         d="M 454.97524,590.30267 C 453.77749,603.26731 435.94891,600.99197 434.11648,588.71437 C 434.11648,583.23814 438.22603,578.72161 443.28845,578.79366 C 452.4545,578.92603 454.97524,584.82644 454.97524,590.30267 z"
         style="fill:#ffffff;fill-opacity:1;fill-rule:nonzero;stroke:#000000;stroke-width:3;stroke-linecap:butt;stroke-linejoin:miter;marker:none;marker-start:none;marker-mid:none;marker-end:none;stroke-miterlimit:4;stroke-dashoffset:0;stroke-opacity:1;visibility:visible;display:inline;overflow:visible;enable-background:accumulate" />
      <path
         style="fill:#ffffff;fill-opacity:1;fill-rule:nonzero;stroke:#000000;stroke-width:3;stroke-linecap:butt;stroke-linejoin:miter;marker:none;marker-start:none;marker-mid:none;marker-end:none;stroke-miterlimit:4;stroke-dashoffset:0;stroke-opacity:1;visibility:visible;display:inline;overflow:visible;enable-background:accumulate"
         d="M 453.97524,549.30267 C 452.77749,562.26731 434.94891,559.99197 433.11648,547.71437 C 433.11648,542.23814 437.22603,537.72161 442.28845,537.79366 C 451.4545,537.92603 453.97524,543.82644 453.97524,549.30267 z"
         id="path9060"
         sodipodi:nodetypes="ccsc" />
      <path
         sodipodi:nodetypes="ccccc"
         id="path9064"
         d="M 360.11648,454.29395 L 420.11648,392.29395 L 423.11648,402.29395 L 365.57645,456.24882 L 360.11648,454.29395 z"
         style="opacity:1;fill:#ffffff;fill-opacity:1;fill-rule:nonzero;stroke:#000000;stroke-width:3;stroke-linecap:butt;stroke-linejoin:miter;marker:none;marker-start:none;marker-mid:none;marker-end:none;stroke-miterlimit:4;stroke-dasharray:none;stroke-dashoffset:0;stroke-opacity:1;visibility:visible;display:inline;overflow:visible;enable-background:accumulate" />
      <path
         transform="translate(-67.883524,53.931774)"
         d="m 505,342.36218 c 0,6.07513 -6.04416,11 -13.5,11 -7.45584,0 -13.5,-4.92487 -13.5,-11 0,-6.07513 6.04416,-11 13.5,-11 7.45584,0 13.5,4.92487 13.5,11 z"
         sodipodi:ry="11"
         sodipodi:rx="13.5"
         sodipodi:cy="342.36218"
         sodipodi:cx="491.5"
         id="path9066"
         style="opacity:1;fill:#ffffff;fill-opacity:1;fill-rule:nonzero;stroke:#000000;stroke-width:3;stroke-linecap:butt;stroke-linejoin:miter;marker:none;marker-start:none;marker-mid:none;marker-end:none;stroke-miterlimit:4;stroke-dasharray:none;stroke-dashoffset:0;stroke-opacity:1;visibility:visible;display:inline;overflow:visible;enable-background:accumulate"
         sodipodi:type="arc" />
      <path
         sodipodi:nodetypes="ccccc"
         style="opacity:1;fill:#ffffff;fill-opacity:1;fill-rule:nonzero;stroke:#000000;stroke-width:3;stroke-linecap:butt;stroke-linejoin:miter;marker:none;marker-start:none;marker-mid:none;marker-end:none;stroke-miterlimit:4;stroke-dasharray:none;stroke-dashoffset:0;stroke-opacity:1;visibility:visible;display:inline;overflow:visible;enable-background:accumulate"
         d="M 346.11648,464.29395 L 291.11648,411.29395 L 289.11648,418.29395 L 335.98945,459.83179 L 346.11648,464.29395 z"
         id="path9068" />
      <path
         sodipodi:type="arc"
         style="opacity:1;fill:#ffffff;fill-opacity:1;fill-rule:nonzero;stroke:#000000;stroke-width:3;stroke-linecap:butt;stroke-linejoin:miter;marker:none;marker-start:none;marker-mid:none;marker-end:none;stroke-miterlimit:4;stroke-dasharray:none;stroke-dashoffset:0;stroke-opacity:1;visibility:visible;display:inline;overflow:visible;enable-background:accumulate"
         id="path9070"
         sodipodi:cx="491.5"
         sodipodi:cy="342.36218"
         sodipodi:rx="13.5"
         sodipodi:ry="11"
         d="m 505,342.36218 c 0,6.07513 -6.04416,11 -13.5,11 -7.45584,0 -13.5,-4.92487 -13.5,-11 0,-6.07513 6.04416,-11 13.5,-11 7.45584,0 13.5,4.92487 13.5,11 z"
         transform="matrix(-0.8703704,0,0,0.8703704,721.15352,118.23798)" />
      <path
         sodipodi:nodetypes="csssscsscc"
         id="path9082"
         d="M 448.83523,639.96302 C 445.61525,640.17796 436.67142,643.03139 408.99148,653.80677 C 405.26212,655.25855 400.24598,655.77802 393.67898,656.05677 C 387.11198,656.33552 379.10177,656.2287 370.17898,655.86927 C 352.3334,655.15041 330.77586,653.39042 309.92898,651.33802 C 275.72239,647.97035 248.73476,644.51634 238.24148,643.15052 C 271.59083,658.26531 318.40299,666.5724 360.21023,667.68177 C 381.78339,668.25422 402.00822,666.93926 418.24148,663.80677 C 434.38036,660.69249 446.48409,655.57914 451.89773,649.80677 C 458.7932,642.85403 458.14033,640.332 448.83523,639.96302 z"
         style="fill:#ffffff;fill-opacity:1;fill-rule:nonzero;stroke:#000000;stroke-width:3;stroke-linecap:butt;stroke-linejoin:miter;marker:none;marker-start:none;marker-mid:none;marker-end:none;stroke-miterlimit:4;stroke-dashoffset:0;stroke-opacity:1;visibility:visible;display:inline;overflow:visible;enable-background:accumulate" />
      <path
         transform="matrix(0.9746978,0.2235266,-0.2235266,0.9746978,66.117366,-71.592966)"
         d="m 509.47043,518.49658 c 0,4.49103 -1.42462,8.13173 -3.18198,8.13173 -1.75736,0 -3.18198,-3.6407 -3.18198,-8.13173 0,-4.49103 1.42462,-8.13173 3.18198,-8.13173 1.75736,0 3.18198,3.6407 3.18198,8.13173 z"
         sodipodi:ry="8.1317282"
         sodipodi:rx="3.1819806"
         sodipodi:cy="518.49658"
         sodipodi:cx="506.28845"
         id="path9074"
         style="opacity:1;fill:#ffffff;fill-opacity:1;fill-rule:nonzero;stroke:#000000;stroke-width:3;stroke-linecap:butt;stroke-linejoin:miter;marker:none;marker-start:none;marker-mid:none;marker-end:none;stroke-miterlimit:4;stroke-dasharray:none;stroke-dashoffset:0;stroke-opacity:1;visibility:visible;display:inline;overflow:visible;enable-background:accumulate"
         sodipodi:type="arc" />
      <path
         sodipodi:type="arc"
         style="opacity:1;fill:#ffffff;fill-opacity:1;fill-rule:nonzero;stroke:#000000;stroke-width:3;stroke-linecap:butt;stroke-linejoin:miter;marker:none;marker-start:none;marker-mid:none;marker-end:none;stroke-miterlimit:4;stroke-dasharray:none;stroke-dashoffset:0;stroke-opacity:1;visibility:visible;display:inline;overflow:visible;enable-background:accumulate"
         id="path9076"
         sodipodi:cx="506.28845"
         sodipodi:cy="518.49658"
         sodipodi:rx="3.1819806"
         sodipodi:ry="8.1317282"
         d="m 509.47043,518.49658 c 0,4.49103 -1.42462,8.13173 -3.18198,8.13173 -1.75736,0 -3.18198,-3.6407 -3.18198,-8.13173 0,-4.49103 1.42462,-8.13173 3.18198,-8.13173 1.75736,0 3.18198,3.6407 3.18198,8.13173 z"
         transform="matrix(0.9746978,0.2235266,-0.2235266,0.9746978,67.885136,-30.227219)" />
    </g>
  </g>
</svg>
